<?xml version="1.0" encoding="UTF-8"?>
<!DOCTYPE svg PUBLIC "-//W3C//DTD SVG 1.1//EN" "http://www.w3.org/Graphics/SVG/1.1/DTD/svg11.dtd">
<!-- Creator: CorelDRAW X7 -->
<svg xmlns="http://www.w3.org/2000/svg" xml:space="preserve" width="112.201mm" height="29.2158mm" version="1.1" style="shape-rendering:geometricPrecision; text-rendering:geometricPrecision; image-rendering:optimizeQuality; fill-rule:evenodd; clip-rule:evenodd"
viewBox="0 0 5726 1491"
 xmlns:xlink="http://www.w3.org/1999/xlink">
 <defs>
  <style type="text/css">
   <![CDATA[
    .fil0 {fill:#0C54A0;fill-rule:nonzero}
   ]]>
  </style>
 </defs>
 <g id="Layer_x0020_1">
  <metadata id="CorelCorpID_0Corel-Layer"/>
  <g id="_2191648957792">
   <path class="fil0" d="M1491 746c0,-176 -61,-338 -162,-465 -30,-35 -53,-57 -86,-80 -390,-264 -1070,137 -384,490 572,294 264,822 -295,778 58,14 119,22 182,22 411,0 745,-334 745,-745z"/>
   <path class="fil0" d="M0 746c0,175 61,337 162,464 30,35 53,57 86,80 390,265 1070,-137 384,-490 -572,-294 -264,-822 295,-778 -58,-14 -119,-22 -181,-22 -412,0 -746,334 -746,746z"/>
   <path class="fil0" d="M1984 630l0 0c-2,-27 -14,-49 -36,-65 -22,-16 -50,-24 -85,-24 -31,0 -55,7 -72,20 -17,14 -25,33 -25,56 0,18 8,31 27,40 17,10 55,21 113,34 83,18 139,40 167,65 28,24 43,63 43,117 0,54 -22,97 -64,128 -43,32 -100,48 -173,48 -72,0 -129,-17 -170,-50 -41,-34 -63,-82 -66,-144l116 0c1,31 13,54 33,70 21,17 50,25 87,25 39,0 68,-6 90,-19 21,-12 32,-29 32,-51 0,-22 -8,-38 -23,-48 -15,-10 -48,-21 -97,-32 -91,-20 -152,-42 -183,-66 -30,-23 -45,-60 -45,-110 0,-56 20,-100 60,-133 41,-33 95,-49 164,-49 64,0 116,17 157,51 40,34 63,79 67,137l-117 0zm329 403l0 0 -55 0 -57 0 0 -575 88 0 88 0 105 456 103 -456 87 0 87 0 0 575 -56 0 -56 0 0 -484 -108 484 -59 0 -59 0 -107 -494 -1 0 0 494zm516 0l204 -575 69 0 70 0 204 575 -64 0 -64 0 -147 -447 -148 447 -61 0 -63 0zm624 0l0 -575 60 0 230 0c54,0 99,15 132,44 34,29 50,68 50,116 0,56 -18,96 -56,122 -9,6 -21,12 -33,17 7,3 13,6 19,9 33,20 50,53 51,99l3 94c1,19 3,32 6,40 3,8 10,14 19,19l0 15 -132 0c-3,-6 -6,-19 -9,-38 -2,-20 -3,-41 -3,-64l-1 -53c-1,-26 -8,-44 -23,-55 -15,-11 -39,-17 -73,-17l-120 0 0 227 -60 0 -60 0zm120 -324l0 0 139 0c31,0 54,-6 70,-19 15,-12 23,-31 23,-57 0,-25 -7,-44 -22,-57 -15,-12 -37,-19 -66,-19l-144 0 0 152zm582 324l0 -473 -173 0 0 -51 0 -51 467 0 0 51 0 51 -173 0 0 473 -60 0 -61 0zm366 0l0 0 0 -575 423 0 0 51 0 51 -303 0 0 121 281 0 0 50 0 50 -281 0 0 150 316 0 0 51 0 51 -436 0zm640 0l0 0 -55 0 -57 0 0 -575 63 0 63 0 231 404 0 -404 56 0 56 0 0 575 -60 0 -60 0 -237 -415 0 415z"/>
   <g>
    <path class="fil0" d="M2197 1210l0 0 0 0zm1090 0l1 0 -1 0zm-1530 -43l78 0 9 0 0 9 0 14 0 9 -9 0 -53 0 0 16 46 0 9 0 0 9 0 14 0 9 -9 0 -46 0 0 42 0 9 -9 0 -16 0 -9 0 0 -9 0 -113 0 -9 9 0zm3678 0l82 0 9 0 0 9 0 14 0 9 -9 0 -58 0 0 16 53 0 9 0 0 9 0 13 0 9 -9 0 -53 0 0 20 59 0 9 0 0 9 0 14 0 9 -9 0 -83 0 -9 0 0 -9 0 -113 0 -9 9 0zm-167 52c3,0 6,-1 7,-1 2,-1 4,-1 5,-2 0,0 1,-1 1,-2 1,-1 1,-3 1,-6 0,-3 -1,-5 -1,-6 -1,-1 -2,-2 -3,-2 0,-1 -1,-1 -3,-1l0 0c-1,0 -3,0 -5,0l-27 0 0 20 25 0zm-49 -52l51 0c5,0 9,1 13,1l0 0c4,1 8,2 12,4 7,3 12,8 15,14l0 0c4,6 6,13 6,21 0,4 -1,7 -2,11 -1,4 -2,7 -4,10 -1,2 -2,3 -4,5l2 2 0 0 0 0c2,2 3,5 4,9l0 0c1,3 1,6 1,10l1 15 0 0c0,2 0,4 0,5l1 3 0 1 5 2 0 6 0 3 0 9 -9 0 -19 0 -6 0 -2 -6 -1 -2 0 0 0 -1 -1 -2 0 0 0 -1 -1 -3 0 -1 0 -5 0 -1 -1 -18c0,-3 0,-4 -1,-6 -1,0 -1,-1 -2,-1 0,-1 -1,-1 -3,-1l0 0c-1,0 -4,0 -6,0l-25 0 0 39 0 9 -9 0 -15 0 -9 0 0 -9 0 -113 0 -9 9 0zm-193 9l0 70c0,3 0,6 1,9 1,2 1,5 3,7l0 0c1,2 3,4 5,5 3,2 6,2 10,2 5,0 9,-1 12,-2l0 0c3,-1 5,-3 6,-6l0 0c1,-2 2,-4 2,-6l0 0c1,-3 1,-6 1,-9l0 -70 0 -9 9 0 15 0 10 0 0 9 0 63c0,8 -1,14 -2,20 -1,6 -3,12 -5,16l0 0c-4,9 -11,15 -19,20 -8,4 -17,6 -28,6 -11,0 -20,-2 -28,-6l0 0c-8,-5 -15,-11 -19,-20l0 0c-2,-4 -4,-10 -5,-16l0 0c-1,-6 -2,-12 -2,-20l0 -63 0 -9 10 0 15 0 9 0 0 9zm-134 0l0 14 0 9 -9 0 -29 0 0 90 0 9 -9 0 -15 0 -9 0 0 -9 0 -90 -29 0 -9 0 0 -9 0 -14 0 -9 9 0 91 0 9 0 0 9zm-282 0l0 70c0,3 1,6 1,9l0 0c1,2 2,5 3,7l0 0c1,2 3,4 5,5l0 0c3,2 6,2 10,2 5,0 9,-1 12,-2l0 0c3,-1 5,-3 6,-6l0 0c1,-2 2,-4 2,-6 1,-3 1,-6 1,-9l0 -70 0 -9 9 0 16 0 9 0 0 9 0 63c0,8 -1,14 -2,20 -1,6 -3,12 -5,16 -4,9 -10,15 -19,20 -7,4 -17,6 -28,6 -11,0 -20,-2 -28,-6l0 0c-8,-5 -14,-11 -19,-20l0 0c-2,-4 -4,-10 -5,-16 -1,-6 -1,-12 -1,-20l0 -63 0 -9 9 0 15 0 9 0 0 9zm-223 -9l78 0 9 0 0 9 0 14 0 9 -9 0 -54 0 0 16 46 0 10 0 0 9 0 14 0 9 -10 0 -46 0 0 42 0 9 -9 0 -15 0 -9 0 0 -9 0 -113 0 -9 9 0zm-355 0l82 0 9 0 0 9 0 14 0 9 -9 0 -58 0 0 16 53 0 9 0 0 9 0 13 0 9 -9 0 -53 0 0 20 59 0 9 0 0 9 0 14 0 9 -9 0 -83 0 -9 0 0 -9 0 -113 0 -9 9 0zm-218 0l16 0 9 0 0 9 0 38 39 0 0 -38 0 -9 9 0 16 0 9 0 0 9 0 113 0 9 -9 0 -16 0 -9 0 0 -9 0 -44 -39 0 0 44 0 9 -9 0 -16 0 -9 0 0 -9 0 -113 0 -9 9 0zm-108 9l0 14 0 9 -9 0 -29 0 0 90 0 9 -9 0 -16 0 -9 0 0 -9 0 -90 -29 0 -9 0 0 -9 0 -14 0 -9 9 0 92 0 9 0 0 9zm-424 76c0,2 0,5 1,7l0 0c0,1 1,3 2,4l0 0c1,2 3,4 6,5l0 0c3,1 7,2 12,2 2,0 4,0 6,0 2,-1 4,-1 5,-2l0 0c3,-1 5,-2 6,-3 1,-2 2,-3 2,-5 0,-3 -1,-5 -2,-6l0 0c-1,-1 -3,-2 -5,-2 -3,-1 -6,-2 -10,-3l0 0 -14 -4c-5,-1 -10,-2 -14,-3l0 0c-4,-2 -7,-4 -10,-5l0 0c-5,-4 -8,-8 -11,-13 -2,-4 -3,-10 -3,-16 0,-6 1,-12 3,-17 2,-6 6,-10 10,-14l0 0c4,-5 9,-8 16,-10l0 0c5,-2 12,-3 19,-3 7,0 13,1 18,3l0 0c6,1 12,4 17,8l0 0c5,3 9,8 12,14l0 0c2,6 3,13 3,20l0 9 -9 0 -14 0 -7 0c3,1 7,3 10,4 4,1 7,3 10,5l0 0c4,4 8,8 10,13l0 0c3,5 4,11 4,17 0,8 -2,15 -5,20 -2,6 -7,11 -13,15l0 0c-5,3 -11,5 -17,7 -6,1 -12,2 -18,2 -8,0 -15,-1 -21,-3l-1 0c-6,-2 -12,-6 -17,-10 -4,-4 -8,-10 -11,-16l0 0c-2,-6 -3,-12 -3,-20l0 -9 9 0 15 0 8 0 1 9zm38 -34l-1 -8c-1,-4 -2,-7 -3,-9 -1,-2 -3,-3 -5,-4 -3,-1 -6,-1 -10,-1 -4,0 -7,0 -9,1 -1,0 -3,1 -3,2l0 0c-2,2 -3,4 -3,6 0,2 0,3 0,3 0,1 1,1 2,2 0,0 2,1 5,2 3,1 7,2 12,3l0 0 15 3zm-201 -51l15 0 10 0 0 9 0 113 0 9 -10 0 -15 0 -9 0 0 -9 0 -113 0 -9 9 0zm-367 0l5 0 0 -1 1 1 12 0 5 0 3 4 39 64 0 -59 0 -9 9 0 15 0 9 0 0 9 0 113 0 9 -9 0 -6 0 0 1 -1 -1 -11 0 -5 0 -2 -4 -40 -64 0 59 0 9 -9 0 -15 0 -9 0 0 -9 0 -113 0 -9 9 0zm-154 92c3,-4 4,-8 6,-13 1,-5 2,-10 2,-15 0,-6 -1,-11 -2,-15 -2,-4 -4,-8 -6,-11 -3,-3 -6,-5 -9,-7 -4,-1 -8,-2 -13,-2 -4,0 -9,1 -12,2 -4,2 -7,4 -10,7l0 0c-2,3 -5,7 -6,11l0 0c-1,5 -2,11 -2,18 0,5 0,10 2,15 1,4 3,8 5,11 5,6 13,9 24,9 5,0 9,-1 13,-2 3,-2 6,-5 8,-8l0 0zm29 -72c4,6 7,12 9,20l0 0c2,7 4,15 4,24 0,9 -2,17 -4,25 -2,8 -6,15 -11,22 -6,8 -13,13 -22,17 -8,4 -18,6 -28,6 -10,0 -19,-2 -27,-5l0 0c-8,-3 -15,-8 -21,-15l0 -1c-5,-6 -9,-13 -12,-21l0 0c-2,-8 -3,-17 -3,-26 0,-8 1,-16 3,-24l0 0c2,-7 5,-14 10,-20l0 0c5,-8 13,-15 21,-19 9,-4 18,-6 29,-6 11,0 21,2 30,6l0 0c8,3 16,9 22,17zm-244 -20l15 0 10 0 0 9 0 113 0 9 -10 0 -15 0 -9 0 0 -9 0 -113 0 -9 9 0zm-192 85c0,2 0,5 1,7l0 0c0,1 1,3 2,4l0 0c1,2 3,4 6,5l0 0c3,1 7,2 12,2 2,0 4,0 6,0 2,-1 4,-1 6,-2l0 0c2,-1 4,-2 5,-3 1,-2 2,-3 2,-5 0,-3 -1,-5 -2,-6l0 0c-1,-1 -3,-2 -5,-2 -3,-1 -6,-2 -9,-3l0 0 -15 -4c-5,-1 -10,-2 -13,-3l-1 0c-4,-2 -7,-4 -10,-5l0 0c-9,-7 -14,-16 -14,-29 0,-6 1,-12 3,-17 2,-6 6,-10 10,-14l0 0c4,-5 10,-8 16,-10l0 0c5,-2 12,-3 19,-3 7,0 13,1 19,3l0 0c5,1 11,4 16,8 5,3 9,8 12,14 2,6 4,13 4,20l0 9 -10 0 -14 0 -7 0c3,1 7,2 10,4 4,1 7,3 10,5l0 0c5,4 8,8 10,13l0 0c3,5 4,11 4,17 0,8 -2,15 -4,20l0 0c-3,6 -8,11 -14,15l0 0c-10,6 -22,9 -35,9 -8,0 -15,-1 -21,-3 -7,-2 -13,-6 -18,-10 -4,-4 -8,-10 -10,-16l0 0c-3,-6 -4,-12 -4,-20l0 -9 9 0 15 0 8 0 1 9zm38 -34l-1 -8c0,-4 -1,-7 -3,-9 -1,-2 -3,-3 -5,-4 -3,-1 -6,-1 -10,-1 -4,0 -6,0 -9,1 -1,0 -3,1 -3,2l0 0c-1,1 -2,2 -3,3l0 0c0,1 0,2 0,3 0,2 0,3 0,3 0,1 1,1 2,2 1,0 2,1 5,2l0 0c4,1 8,2 12,3l0 0 15 3zm-248 -42l0 70c0,3 0,6 1,9 0,2 1,5 2,7 1,2 3,4 6,5l0 0c2,2 5,2 9,2 5,0 9,-1 13,-2l0 0c2,-1 4,-3 6,-6l0 0c1,-2 1,-4 2,-6 0,-3 0,-6 0,-9l0 -70 0 -9 10 0 15 0 9 0 0 9 0 63c0,8 0,14 -1,20l0 0c-2,6 -3,12 -6,16 -4,9 -10,15 -18,20 -8,4 -18,6 -29,6 -10,0 -20,-2 -28,-6l0 0c-8,-5 -14,-11 -18,-20l0 0c-3,-4 -4,-10 -5,-16 -1,-6 -2,-12 -2,-20l0 -63 0 -9 9 0 15 0 10 0 0 9z"/>
   </g>
   <path class="fil0" d="M5623 518l17 0c10,0 18,-1 18,-13 0,-10 -11,-12 -19,-12l-16 0 0 25zm-20 -40l37 0c24,0 38,8 38,29 0,17 -11,24 -26,25l26 42 -20 0 -23 -41 -12 0 0 41 -20 0 0 -96zm35 116c35,0 65,-28 65,-68 0,-39 -30,-67 -65,-67 -36,0 -65,28 -65,67 0,40 29,68 65,68zm0 -154c46,0 88,34 88,86 0,53 -42,87 -88,87 -47,0 -89,-34 -89,-87 0,-52 42,-86 89,-86z"/>
  </g>
 </g>
</svg>
